<svg width="34" height="35" viewBox="0 0 34 35" fill="none" xmlns="http://www.w3.org/2000/svg">
<path d="M24.75 1H8.91667C4.54441 1 1 4.63769 1 9.125V25.375C1 29.8623 4.54441 33.5 8.91667 33.5H24.75C29.1223 33.5 32.6667 29.8623 32.6667 25.375V9.125C32.6667 4.63769 29.1223 1 24.75 1Z" stroke="white" stroke-width="2" stroke-linecap="round" stroke-linejoin="round"/>
<path d="M22.1665 16.2263C22.3619 17.5787 22.1369 18.9599 21.5233 20.1734C20.9098 21.3869 19.939 22.371 18.7491 22.9857C17.5592 23.6004 16.2107 23.8143 14.8955 23.5971C13.5803 23.3799 12.3653 22.7426 11.4234 21.7759C10.4814 20.8091 9.86044 19.5622 9.6488 18.2123C9.43717 16.8625 9.64563 15.4786 10.2445 14.2574C10.8435 13.0361 11.8023 12.0398 12.9848 11.4101C14.1672 10.7805 15.513 10.5495 16.8307 10.75C18.1748 10.9546 19.4192 11.5974 20.38 12.5835C21.3409 13.5696 21.9672 14.8468 22.1665 16.2263Z" stroke="white" stroke-width="2" stroke-linecap="round" stroke-linejoin="round"/>
<path d="M25.5417 8.3125H25.5567" stroke="white" stroke-width="2" stroke-linecap="round" stroke-linejoin="round"/>
</svg>
