<svg width="37" height="32" viewBox="0 0 37 32" fill="none" xmlns="http://www.w3.org/2000/svg">
<path d="M35.8333 1.01634C34.3171 2.11399 32.6383 2.95352 30.8617 3.50259C29.9081 2.3773 28.6408 1.57971 27.2311 1.21772C25.8215 0.855726 24.3375 0.946783 22.98 1.47858C21.6224 2.01037 20.4567 2.95724 19.6406 4.19113C18.8244 5.42502 18.3972 6.88639 18.4167 8.37759V10.0026C15.6342 10.0766 12.877 9.44329 10.3908 8.15894C7.90451 6.87459 5.76634 4.97912 4.16667 2.64134C4.16667 2.64134 -2.16667 17.2663 12.0833 23.7663C8.8225 26.038 4.938 27.1771 1 27.0163C15.25 35.1413 32.6667 27.0163 32.6667 8.32884C32.6652 7.8762 32.6228 7.42468 32.54 6.98009C34.156 5.34452 35.2963 3.2795 35.8333 1.01634Z" stroke="white" stroke-width="2" stroke-linecap="round" stroke-linejoin="round"/>
</svg>
